<svg id="Layer_1" data-name="Layer 1" xmlns="http://www.w3.org/2000/svg" viewBox="0 0 72 46.47"><defs><style>.cls-1{fill:#f0efec;}.cls-2{fill:#ee4451;}.cls-3{fill:#77b6be;}</style></defs><path class="cls-1" d="M65.9,19.78c0,6.92-5,10.33-9.49,10.33-3.52,0-5.58-1.92-5.89-2.64h-.11V37H44.48V9.83h5.93v2.25h.11c.31-.72,2.37-2.64,5.89-2.64C60.93,9.44,65.9,12.85,65.9,19.78Zm-5.81,0a4.92,4.92,0,1,0-9.84,0,4.92,4.92,0,1,0,9.84,0Z"/><path class="cls-2" d="M25.08,9.79a2.26,2.26,0,1,0,0,4.51H39.83V9.79Z"/><path class="cls-1" d="M18.34,9.79H9.23a2.26,2.26,0,1,0,0,4.51h9.11a2.26,2.26,0,1,0,0-4.51Z"/><path class="cls-2" d="M9.23,29.42H28.31a2.26,2.26,0,1,0,0-4.51H9.23a2.26,2.26,0,1,0,0,4.51Z"/><path class="cls-2" d="M35.05,24.91a2.26,2.26,0,1,0,0,4.51h4.78V24.91Z"/><path class="cls-3" d="M32.27,19.38a2.3,2.3,0,0,0-2.35-2.25H18.2a2.26,2.26,0,1,0,0,4.51H29.92A2.3,2.3,0,0,0,32.27,19.38Z"/><path class="cls-1" d="M36.69,17.13a2.26,2.26,0,1,0,0,4.51h3.14V17.13Z"/><path class="cls-1" d="M29.92,32.51H18.2a2.3,2.3,0,0,0-2.35,2.26h0A2.3,2.3,0,0,0,18.2,37H29.92a2.3,2.3,0,0,0,2.35-2.25h0A2.3,2.3,0,0,0,29.92,32.51Z"/><path class="cls-3" d="M36.69,32.51a2.3,2.3,0,0,0-2.35,2.26h0A2.3,2.3,0,0,0,36.69,37h3.14V32.51Z"/><path class="cls-2" d="M11.47,32.51h-3A2.3,2.3,0,0,0,6.1,34.77h0A2.3,2.3,0,0,0,8.44,37h3a2.3,2.3,0,0,0,2.35-2.25h0A2.3,2.3,0,0,0,11.47,32.51Z"/></svg>