<svg id="Layer_1" data-name="Layer 1" xmlns="http://www.w3.org/2000/svg" viewBox="0 0 216 57.09"><defs><style>.cls-1{fill:#042b3b;}.cls-2{fill:#ee4451;}.cls-3{fill:#77b6be;}</style></defs><path class="cls-1" d="M125.16,32.67v3.79a5,5,0,0,1-3.21.87c-3.09,0-5.33-1.51-5.33-5.33V24.39h-2.47V20.45h2.47V16.18h5v4.27h3.5v3.94h-3.5V31.2c0,.83.48,1.73,2,1.73A5.25,5.25,0,0,0,125.16,32.67Z"/><rect class="cls-1" x="38.34" y="20.9" width="4.98" height="16.69"/><path class="cls-1" d="M56.86,32.67v3.79a5,5,0,0,1-3.21.87c-3.08,0-5.32-1.51-5.32-5.33V24.39H45.85V20.45h2.48V16.18h5v4.27h3.5v3.94H53.3V31.2c0,.83.48,1.73,2,1.73A5.19,5.19,0,0,0,56.86,32.67Z"/><path class="cls-1" d="M58.79,32.71l3.94-1.06a2.44,2.44,0,0,0,2.41,1.92c.9,0,1.73-.45,1.73-1.38,0-.54-.32-1.06-1.41-1.41L63.22,30c-2.77-1-3.95-2.8-3.95-4.88,0-3.12,2.79-4.95,6.06-4.95s5.43,1.77,6,4.47l-3.89,1A2,2,0,0,0,65.53,24c-1,0-1.45.57-1.45,1.15s.32,1.06,1.45,1.41l2.08.77c1.8.61,4.17,1.87,4.17,4.88,0,3.37-2.85,5.27-6.57,5.27C61.83,37.46,59.3,35.88,58.79,32.71Z"/><path class="cls-1" d="M92.29,28.79c0,5.81-4.17,8.67-8,8.67-3,0-4.68-1.61-4.94-2.22h-.1v8h-5V20.45h5v1.89h.1c.26-.61,2-2.22,4.94-2.22C88.12,20.12,92.29,23,92.29,28.79Zm-4.88,0a4.13,4.13,0,1,0-8.25,0,4.13,4.13,0,1,0,8.25,0Z"/><path class="cls-1" d="M94,28.79c0-5.81,4.17-8.67,8-8.67,3,0,4.69,1.61,4.94,2.22h.1V20.45h5V37.14h-5v-1.9h-.1c-.25.61-2,2.22-4.94,2.22C98.19,37.46,94,34.6,94,28.79Zm13.13,0a4.11,4.11,0,1,0-8.22,0,4.11,4.11,0,1,0,8.22,0Z"/><path class="cls-1" d="M139.49,20.29V25a7.06,7.06,0,0,0-1.15-.09c-3.31,0-5.2,2.21-5.2,5.36v6.87h-5V20.45h5V25c.55-2.69,2.15-4.85,5.17-4.85A3.83,3.83,0,0,1,139.49,20.29Z"/><rect class="cls-1" x="142.03" y="20.45" width="4.98" height="16.69"/><path class="cls-1" d="M149.54,28.76c0-5.65,4.43-8.64,8.89-8.64a8.07,8.07,0,0,1,7.19,4.11L162,26.58a4.41,4.41,0,0,0-3.59-2,3.94,3.94,0,0,0-4,4.14,4,4,0,0,0,4,4.2A4.4,4.4,0,0,0,162,31l3.6,2.34a8.22,8.22,0,0,1-7.19,4.11C154,37.46,149.54,34.47,149.54,28.76Z"/><path class="cls-1" d="M175,31.07l-1.83,2v4h-5V14.35h5V26.77l5.52-6.32h5.94L178,27.7l7.23,9.44h-5.49Z"/><path class="cls-1" d="M203,20.45V37.14h-5V35a5.63,5.63,0,0,1-4.94,2.44c-3.37,0-6.22-2.09-6.22-7.19V20.45h5v9c0,2.09,1.06,3.63,3.11,3.63S198,31.49,198,29.4V20.45Z"/><path class="cls-2" d="M24.47,21a1.36,1.36,0,1,0,0,2.72h8.89V21Z"/><path class="cls-1" d="M20.41,21H14.92a1.36,1.36,0,1,0,0,2.72h5.49a1.36,1.36,0,1,0,0-2.72Z"/><path class="cls-2" d="M14.92,32.79h11.5a1.36,1.36,0,1,0,0-2.72H14.92a1.36,1.36,0,1,0,0,2.72Z"/><path class="cls-2" d="M30.48,30.07a1.36,1.36,0,1,0,0,2.72h2.88V30.07Z"/><path class="cls-3" d="M28.81,26.74a1.39,1.39,0,0,0-1.42-1.36H20.32a1.36,1.36,0,1,0,0,2.72h7.07A1.39,1.39,0,0,0,28.81,26.74Z"/><path class="cls-1" d="M31.47,25.38a1.36,1.36,0,1,0,0,2.72h1.89V25.38Z"/><path class="cls-1" d="M27.39,34.65H20.32A1.39,1.39,0,0,0,18.91,36h0a1.39,1.39,0,0,0,1.41,1.36h7.07A1.39,1.39,0,0,0,28.81,36h0A1.39,1.39,0,0,0,27.39,34.65Z"/><path class="cls-3" d="M31.47,34.65A1.39,1.39,0,0,0,30.06,36h0a1.39,1.39,0,0,0,1.41,1.36h1.89V34.65Z"/><path class="cls-2" d="M16.27,34.65H14.44A1.39,1.39,0,0,0,13,36h0a1.39,1.39,0,0,0,1.41,1.36h1.83A1.39,1.39,0,0,0,17.69,36h0A1.39,1.39,0,0,0,16.27,34.65Z"/><circle class="cls-1" cx="40.83" cy="16.3" r="2.44"/><circle class="cls-1" cx="144.51" cy="16.3" r="2.44"/></svg>